<svg xmlns="http://www.w3.org/2000/svg" viewBox="0 0 595.28 841.89"><defs><style>.cls-1{fill:#313f58;}.cls-2{fill:#f7964c;}</style></defs><title>Lulu</title><g id="Layer_2" data-name="Layer 2"><path class="cls-1" d="M53.49,420.86c0-26,18.48-44,45.52-44s45.52,18,45.52,44-18.6,44-45.52,44S53.49,447,53.49,420.86Zm19.41,0c0,16.06,10.74,27.26,26.11,27.38s26.11-11.32,26.11-27.38S114.37,393.48,99,393.48,72.9,404.8,72.9,420.86Z"/><path class="cls-1" d="M174.22,433.33l-29.11-53.6h20.56l18.25,36.51,17.44-36.51h20.91l-28.54,53.6V462H174.22Z"/><path class="cls-2" d="M223,420.86c0-26,18.48-44,45.52-44s45.52,18,45.52,44-18.6,44-45.52,44S223,447,223,420.86Zm19.41,0c0,16.06,10.74,27.26,26.11,27.38s26.11-11.32,26.11-27.38-10.74-27.38-26.11-27.38S242.38,404.8,242.38,420.86Z"/><path class="cls-2" d="M325.1,420.86c0-26,18.48-44,45.52-44s45.52,18,45.52,44-18.6,44-45.52,44S325.1,447,325.1,420.86Zm19.41,0c0,16.06,10.74,27.26,26.11,27.38s26.11-11.32,26.11-27.38S386,393.48,370.62,393.48,344.51,404.8,344.51,420.86Z"/><path class="cls-1" d="M485.46,438.53v-58.8h18.48V462H482.57L449.41,403.3V462H431V379.73h21.37Z"/><rect class="cls-2" x="294.6" y="406.69" width="49.75" height="24" rx="12" ry="12"/><path class="cls-2" d="M413.6,406.69a12,12,0,0,1,12,12h0a12,12,0,0,1-12,12"/><path class="cls-2" d="M226,408.86a12,12,0,0,0-12,12h0a12,12,0,0,0,12,12"/><circle class="cls-1" cx="370.62" cy="420.86" r="26.96"/><circle class="cls-1" cx="268.49" cy="420.86" r="26.96"/><path class="cls-1" d="M53.43,421c0-26,18.48-44,45.52-44s45.52,18,45.52,44S125.87,465,99,465,53.43,447.14,53.43,421Zm19.41,0c0,16.06,10.74,27.26,26.11,27.38s26.11-11.32,26.11-27.38S114.32,393.65,99,393.65,72.84,405,72.84,421Z"/><path class="cls-1" d="M174.15,433.51,145,379.91H165.6l18.25,36.5,17.44-36.5h20.91l-28.53,53.6v28.65H174.15Z"/><path class="cls-1" d="M485.36,438.71v-58.8h18.48v82.25H482.47l-33.16-58.69v58.69H430.95V379.91h21.37Z"/><path class="cls-1" d="M541.85,379.91v82.25H522.44V379.91Z"/></g></svg>