<svg xmlns="http://www.w3.org/2000/svg" viewBox="0 0 595.28 841.89"><defs><style>.cls-1{fill:#f7964c;}.cls-2{fill:#313f58;}</style></defs><title>Lulu 2</title><g id="Layer_2" data-name="Layer 2"><path class="cls-1" d="M200.52,418.87c0-26,18.48-44,45.52-44s45.52,18,45.52,44-18.6,44-45.52,44S200.52,445,200.52,418.87Zm19.41,0c0,16.06,10.74,27.26,26.11,27.38s26.11-11.32,26.11-27.38S261.4,391.49,246,391.49,219.92,402.81,219.92,418.87Z"/><path class="cls-1" d="M302.64,418.87c0-26,18.48-44,45.52-44s45.52,18,45.52,44-18.6,44-45.52,44S302.64,445,302.64,418.87Zm19.41,0c0,16.06,10.74,27.26,26.11,27.38s26.11-11.32,26.11-27.38-10.74-27.38-26.11-27.38S322.05,402.81,322.05,418.87Z"/><rect class="cls-1" x="272.14" y="404.71" width="49.75" height="24" rx="12" ry="12"/><path class="cls-1" d="M391.14,404.71a12,12,0,0,1,12,12h0a12,12,0,0,1-12,12"/><path class="cls-1" d="M203.52,406.87a12,12,0,0,0-12,12h0a12,12,0,0,0,12,12"/><circle class="cls-2" cx="348.16" cy="418.87" r="26.96"/><circle class="cls-2" cx="246.03" cy="418.87" r="26.96"/></g></svg>